<svg width="337" height="75" viewBox="0 0 337 75" fill="none" xmlns="http://www.w3.org/2000/svg">
<g clip-path="url(#clip0_39_801)">
<path d="M43.74 46.04C43.64 74.39 0.59 74.77 0 46.45C0.5 21.58 9.04 9.48998 25.02 0.789984C25.88 0.359984 26.74 1.32998 26.25 2.14998C14.87 23.65 45.14 26.49 43.74 46.04V46.04Z" fill="#F3FAFF"/>
<path d="M8.52005 21.23C8.58005 21.06 8.34005 20.95 8.25005 21.11C-1.17995 39.18 2.92005 57.07 12.6101 62.65C19.8901 66.84 29.2801 63.46 32.6801 62.02C32.8301 61.96 32.7901 61.74 32.6301 61.74C28.9301 61.83 21.7701 61.37 15.7001 56.55C6.61005 49.33 3.46005 35.1 8.53005 21.23H8.52005Z" fill="#343434"/>
<path d="M34.9899 17.44C39.0326 17.44 42.3099 14.1627 42.3099 10.12C42.3099 6.07726 39.0326 2.79999 34.9899 2.79999C30.9472 2.79999 27.6699 6.07726 27.6699 10.12C27.6699 14.1627 30.9472 17.44 34.9899 17.44Z" fill="#F3FAFF"/>
<path d="M27.6701 47.69C31.7128 47.69 34.9901 44.4127 34.9901 40.37C34.9901 36.3273 31.7128 33.05 27.6701 33.05C23.6274 33.05 20.3501 36.3273 20.3501 40.37C20.3501 44.4127 23.6274 47.69 27.6701 47.69Z" fill="#343434"/>
<path d="M33.6899 54.48C35.2032 54.48 36.43 53.2533 36.43 51.74C36.43 50.2267 35.2032 49 33.6899 49C32.1767 49 30.95 50.2267 30.95 51.74C30.95 53.2533 32.1767 54.48 33.6899 54.48Z" fill="#343434"/>
<path d="M33.96 6.64999C34.6172 6.64999 35.15 6.11721 35.15 5.45999C35.15 4.80277 34.6172 4.26999 33.96 4.26999C33.3028 4.26999 32.77 4.80277 32.77 5.45999C32.77 6.11721 33.3028 6.64999 33.96 6.64999Z" fill="#343434"/>
<path d="M31.57 5.87C31.57 5.87 26.89 7.23 30.42 12.85C30.55 12 29.55 7.44 31.57 5.87V5.87Z" fill="#343434"/>
<path d="M266.64 19.95L262.53 26.58L258.81 20.58L252.84 10.93H243.63L257.93 34.02L258.81 35.45V54.72H266.64V34.81L267.14 34.02L281.43 10.93H272.22L266.64 19.95Z" fill="#F3FAFF"/>
<path d="M226.4 44.63L217.21 10.93H209.8C207.14 21.47 204.48 32 201.82 42.54C203.16 46.6 204.51 50.66 205.85 54.72L213.89 24.21L221.29 54.49L231.76 54.72L243.63 10.93H234.83L226.4 44.63Z" fill="#F3FAFF"/>
<path d="M180.95 10.93L193.72 54.49H201.76L188.49 10.93H180.95Z" fill="#F3FAFF"/>
<path d="M173.8 37.87C175.76 30.85 177.72 23.83 179.68 16.8C178.95 14.85 178.23 12.89 177.51 10.93H174.31L160.02 54.72L168.44 54.49L171.63 44.51H187.59L185.55 37.87H173.8V37.87Z" fill="#F3FAFF"/>
<path d="M150.71 31.75C148.62 30.77 146.16 29.93 143.32 29.24C141.14 28.68 139.31 28.16 137.85 27.67C136.39 27.19 135.29 26.6 134.57 25.92C133.83 25.23 133.47 24.31 133.47 23.13C133.47 21.6 134.05 20.41 135.21 19.56C136.36 18.72 138.07 18.29 140.34 18.29C141.64 18.29 142.92 18.46 144.17 18.81C145.43 19.15 146.6 19.55 147.67 19.99C148.75 20.44 149.66 20.9 150.41 21.39C151.16 21.88 151.68 22.27 151.96 22.55L155.67 15.74C154.41 14.89 152.99 14.09 151.42 13.37C149.83 12.63 148.14 12.05 146.33 11.6C144.53 11.15 142.62 10.93 140.59 10.93C137.67 10.93 135.01 11.45 132.62 12.48C130.23 13.51 128.33 15.02 126.94 17.02C125.53 19.02 124.84 21.49 124.84 24.44C124.84 26.62 125.28 28.44 126.17 29.89C127.06 31.34 128.43 32.55 130.25 33.49C132.07 34.44 134.34 35.3 137.06 36.06C139.33 36.71 141.3 37.31 142.96 37.85C144.62 38.4 145.92 39.03 146.85 39.76C147.78 40.49 148.25 41.5 148.25 42.79C148.25 44.19 147.66 45.28 146.49 46.04C145.31 46.8 143.59 47.18 141.32 47.18C139.69 47.18 138.09 46.98 136.51 46.57C134.93 46.17 133.47 45.67 132.13 45.08C130.8 44.49 129.66 43.9 128.73 43.32C127.8 42.73 127.15 42.25 126.78 41.89L123.07 49.13C124.73 50.3 126.56 51.3 128.54 52.14C130.53 52.97 132.6 53.61 134.75 54.05C136.9 54.5 139.05 54.72 141.19 54.72C143.33 54.72 145.37 54.49 147.28 54.03C149.18 53.56 150.89 52.82 152.39 51.81C153.88 50.81 155.06 49.49 155.91 47.85C156.77 46.22 157.19 44.25 157.19 41.95C157.19 39.33 156.63 37.22 155.52 35.63C154.4 34.04 152.8 32.74 150.71 31.75V31.75Z" fill="#F3FAFF"/>
<path d="M107.61 19.95L103.5 26.58L99.7801 20.58L93.8101 10.93H84.6001L98.9001 34.02L99.7801 35.45V54.72H107.61V34.81L108.1 34.02L122.4 10.93H113.19L107.61 19.95Z" fill="#F3FAFF"/>
<path d="M49.6699 10.93V18.72H62.8699V54.49H70.6599V18.72H83.9299V10.93H49.6699Z" fill="#F3FAFF"/>
<path d="M326.66 42.86C340.8 25.53 323.87 18.36 323.11 18.05C346.73 25.37 333.89 38.46 326.66 42.86Z" fill="#F3FAFF"/>
<path d="M284.87 40.93C284.87 40.93 273.83 41.77 271.96 43.46C272.39 43.03 276.79 38.91 284.87 40.93Z" fill="#F3FAFF"/>
<path d="M336.7 37.33C333.73 44.29 329.13 51.24 316.8 45.81C315.68 45.32 314.5 44.73 313.25 44.02C313.51 44.11 314.91 44.64 316.98 45.02C322 45.96 330.91 46.08 336.7 37.33V37.33Z" fill="#F3FAFF"/>
<path d="M333.97 48C332.33 50.42 330.55 51.72 329.47 52.39C322.82 56.52 314.84 53.76 311.63 52.34C310.87 52 310.38 51.74 310.23 51.66C309.11 51.04 309.64 51.2 306.23 48.85C305.36 48.24 304.47 47.63 303.59 47.04C299.79 44.44 295.97 41.98 292.48 40.49C289.31 39.13 283.77 37.45 275.68 38.29C280 36.71 286.79 34.99 294.14 36.93C300.26 38.55 303.3 41.79 307.94 44.57C309.61 45.58 311.49 46.52 313.8 47.31C314.45 47.53 315.17 47.75 315.94 47.96C320.12 49.07 326.05 49.7 333.97 48Z" fill="#F3FAFF"/>
<path d="M308.47 53.72C308.11 53.83 307.74 53.94 307.36 54.03C305.46 54.49 303.43 54.72 301.28 54.72C299.13 54.72 296.98 54.5 294.84 54.05C292.68 53.61 290.62 52.97 288.63 52.14C286.64 51.3 284.82 50.3 283.16 49.13L286.87 41.89C287.23 42.25 287.88 42.73 288.81 43.32C289.74 43.9 290.88 44.49 292.22 45.08C293.56 45.67 295.01 46.17 296.6 46.57C298.18 46.98 299.78 47.18 301.4 47.18C303.76 49.36 306.12 51.54 308.47 53.72Z" fill="#F3FAFF"/>
<path d="M317.28 41.95C317.28 42.48 317.26 43 317.21 43.49L307.85 40.8C307.62 40.41 307.32 40.06 306.94 39.76C306 39.03 304.7 38.4 303.05 37.85C301.38 37.31 299.41 36.71 297.15 36.06C294.43 35.3 292.16 34.44 290.33 33.49C288.51 32.55 287.15 31.34 286.26 29.89C285.37 28.44 284.92 26.62 284.92 24.44C284.92 21.49 285.62 19.02 287.02 17.02C288.42 15.02 290.31 13.51 292.71 12.48C295.1 11.45 297.75 10.93 300.67 10.93C302.7 10.93 304.62 11.15 306.42 11.6C308.22 12.05 309.92 12.63 311.5 13.37C313.08 14.09 314.5 14.89 315.76 15.74L312.04 22.55C311.76 22.27 311.24 21.88 310.5 21.39C309.74 20.9 308.83 20.44 307.76 19.99C306.68 19.55 305.52 19.15 304.26 18.81C303 18.46 301.73 18.29 300.43 18.29C298.16 18.29 296.44 18.72 295.29 19.56C294.13 20.41 293.56 21.6 293.56 23.13C293.56 24.31 293.92 25.23 294.65 25.92C295.38 26.6 296.47 27.19 297.93 27.67C299.39 28.16 301.22 28.68 303.41 29.24C306.25 29.93 308.71 30.77 310.8 31.75C312.89 32.74 314.49 34.04 315.6 35.63C316.72 37.22 317.28 39.33 317.28 41.95V41.95Z" fill="#F3FAFF"/>
<path d="M69.0799 61.11H66.1599V68.82H65.8599V61.11H62.9399V60.81H69.0699V61.11H69.0799Z" fill="#F3FAFF"/>
<path d="M73.53 65.4H70.75V68.83H70.45V60.82H73C73.8 60.82 74.44 61.03 74.92 61.44C75.39 61.85 75.63 62.42 75.63 63.13C75.63 63.68 75.46 64.15 75.12 64.56C74.78 64.97 74.35 65.22 73.82 65.32L75.96 68.75V68.83H75.65L73.52 65.4H73.53ZM70.75 65.1H73.27C73.89 65.1 74.38 64.91 74.76 64.54C75.14 64.17 75.33 63.69 75.33 63.13C75.33 62.51 75.12 62.02 74.7 61.66C74.28 61.3 73.71 61.12 72.98 61.12H70.75V65.11V65.1Z" fill="#F3FAFF"/>
<path d="M82.08 66.43H78.16L77.27 68.82H76.95L79.95 60.81H80.31L83.31 68.82H82.99L82.09 66.43H82.08ZM78.27 66.13H81.97L80.12 61.17L78.27 66.13V66.13Z" fill="#F3FAFF"/>
<path d="M90.3498 68.82H90.0498L84.8798 61.32V68.82H84.5798V60.81H84.8798L90.0498 68.3V60.81H90.3498V68.82Z" fill="#F3FAFF"/>
<path d="M97.35 66.9C97.35 66.56 97.27 66.27 97.11 66.03C96.95 65.79 96.7 65.58 96.36 65.4C96.02 65.22 95.5 65.03 94.81 64.84C94.12 64.65 93.6 64.46 93.25 64.26C92.9 64.06 92.65 63.84 92.49 63.58C92.33 63.32 92.25 63.01 92.25 62.64C92.25 62.06 92.5 61.58 92.99 61.22C93.48 60.86 94.12 60.68 94.91 60.68C95.42 60.68 95.88 60.78 96.29 60.98C96.7 61.18 97.02 61.46 97.24 61.82C97.46 62.18 97.58 62.59 97.58 63.04H97.28C97.28 62.44 97.06 61.95 96.62 61.56C96.18 61.17 95.61 60.97 94.91 60.97C94.21 60.97 93.64 61.13 93.2 61.44C92.77 61.75 92.55 62.15 92.55 62.62C92.55 63.09 92.74 63.49 93.12 63.78C93.5 64.07 94.12 64.33 94.99 64.56C95.86 64.79 96.5 65.05 96.9 65.34C97.41 65.72 97.67 66.22 97.67 66.86C97.67 67.26 97.56 67.62 97.33 67.93C97.1 68.24 96.78 68.48 96.36 68.65C95.94 68.82 95.47 68.9 94.95 68.9C94.37 68.9 93.85 68.8 93.39 68.61C92.93 68.42 92.58 68.14 92.35 67.79C92.12 67.44 92 67.01 92 66.53H92.3C92.3 67.19 92.55 67.7 93.04 68.06C93.53 68.42 94.17 68.6 94.96 68.6C95.66 68.6 96.24 68.44 96.69 68.12C97.14 67.8 97.37 67.38 97.37 66.87L97.35 66.9Z" fill="#F3FAFF"/>
<path d="M99.51 65.44V68.82H99.21V60.81H101.71C102.53 60.81 103.16 61.02 103.62 61.43C104.07 61.84 104.3 62.42 104.3 63.15C104.3 63.88 104.08 64.44 103.64 64.83C103.2 65.22 102.57 65.43 101.76 65.44H99.52H99.51ZM99.51 65.14H101.72C102.44 65.14 103 64.97 103.41 64.62C103.81 64.27 104.01 63.79 104.01 63.16C104.01 62.53 103.81 62.01 103.41 61.65C103.01 61.29 102.45 61.11 101.72 61.11H99.51V65.14Z" fill="#F3FAFF"/>
<path d="M111.65 65.42C111.65 66.11 111.53 66.73 111.28 67.26C111.03 67.79 110.68 68.21 110.22 68.5C109.76 68.79 109.23 68.94 108.64 68.94C107.74 68.94 107.01 68.62 106.45 67.98C105.89 67.34 105.61 66.47 105.61 65.38V64.22C105.61 63.53 105.73 62.92 105.98 62.38C106.23 61.84 106.58 61.43 107.04 61.14C107.5 60.85 108.03 60.7 108.62 60.7C109.21 60.7 109.75 60.85 110.21 61.14C110.67 61.43 111.03 61.85 111.27 62.38C111.52 62.92 111.64 63.53 111.64 64.21V65.41L111.65 65.42ZM111.35 64.21C111.35 63.24 111.1 62.46 110.61 61.88C110.12 61.3 109.46 61 108.62 61C107.78 61 107.14 61.29 106.65 61.87C106.16 62.45 105.91 63.24 105.91 64.24V65.41C105.91 66.05 106.02 66.61 106.24 67.1C106.46 67.59 106.78 67.97 107.19 68.23C107.6 68.49 108.08 68.63 108.63 68.63C109.47 68.63 110.13 68.34 110.62 67.76C111.11 67.18 111.35 66.38 111.35 65.37V64.2V64.21Z" fill="#F3FAFF"/>
<path d="M116.53 65.4H113.75V68.83H113.45V60.82H116C116.8 60.82 117.44 61.03 117.92 61.44C118.4 61.85 118.63 62.42 118.63 63.13C118.63 63.68 118.46 64.15 118.12 64.56C117.78 64.97 117.35 65.22 116.82 65.32L118.96 68.75V68.83H118.65L116.52 65.4H116.53ZM113.75 65.1H116.27C116.89 65.1 117.38 64.91 117.76 64.54C118.14 64.17 118.33 63.69 118.33 63.13C118.33 62.51 118.12 62.02 117.7 61.66C117.28 61.3 116.7 61.12 115.98 61.12H113.75V65.11V65.1Z" fill="#F3FAFF"/>
<path d="M125.75 61.11H122.83V68.82H122.53V61.11H119.61V60.81H125.74V61.11H125.75Z" fill="#F3FAFF"/>
<path d="M131.46 64.85H127.44V68.52H132.02V68.82H127.15V60.81H132.02V61.11H127.44V64.55H131.46V64.85V64.85Z" fill="#F3FAFF"/>
<path d="M141.21 65.51L144.01 60.81H144.37L141.35 65.78V68.82H141.05V65.78L138.03 60.81H138.43L141.2 65.51H141.21Z" fill="#F3FAFF"/>
<path d="M155.87 66.9C155.87 66.56 155.79 66.27 155.63 66.03C155.47 65.79 155.22 65.58 154.88 65.4C154.54 65.22 154.02 65.03 153.33 64.84C152.64 64.65 152.12 64.46 151.77 64.26C151.42 64.06 151.17 63.84 151.01 63.58C150.85 63.32 150.77 63.01 150.77 62.64C150.77 62.06 151.02 61.58 151.51 61.22C152 60.86 152.64 60.68 153.43 60.68C153.94 60.68 154.4 60.78 154.81 60.98C155.22 61.18 155.54 61.46 155.76 61.82C155.98 62.18 156.09 62.59 156.09 63.04H155.79C155.79 62.44 155.57 61.95 155.13 61.56C154.69 61.17 154.12 60.97 153.42 60.97C152.72 60.97 152.15 61.13 151.71 61.44C151.28 61.75 151.06 62.15 151.06 62.62C151.06 63.09 151.25 63.49 151.63 63.78C152.01 64.07 152.63 64.33 153.5 64.56C154.37 64.79 155.01 65.05 155.41 65.34C155.92 65.72 156.18 66.22 156.18 66.86C156.18 67.26 156.07 67.62 155.84 67.93C155.61 68.24 155.29 68.48 154.87 68.65C154.45 68.82 153.98 68.9 153.46 68.9C152.88 68.9 152.36 68.8 151.9 68.61C151.44 68.42 151.09 68.14 150.86 67.79C150.63 67.43 150.51 67.01 150.51 66.53H150.81C150.81 67.19 151.06 67.7 151.55 68.06C152.04 68.42 152.68 68.6 153.47 68.6C154.17 68.6 154.75 68.44 155.2 68.12C155.66 67.8 155.88 67.38 155.88 66.87L155.87 66.9Z" fill="#F3FAFF"/>
<path d="M162.05 64.85H158.03V68.52H162.61V68.82H157.74V60.81H162.61V61.11H158.03V64.55H162.05V64.85V64.85Z" fill="#F3FAFF"/>
<path d="M167.2 65.4H164.42V68.83H164.12V60.82H166.67C167.47 60.82 168.11 61.03 168.59 61.44C169.07 61.85 169.3 62.42 169.3 63.13C169.3 63.68 169.13 64.15 168.79 64.56C168.45 64.97 168.02 65.22 167.49 65.32L169.63 68.75V68.83H169.32L167.19 65.4H167.2ZM164.42 65.1H166.94C167.56 65.1 168.05 64.91 168.43 64.54C168.81 64.17 169 63.69 169 63.13C169 62.51 168.79 62.02 168.37 61.66C167.95 61.3 167.37 61.12 166.65 61.12H164.42V65.11V65.1Z" fill="#F3FAFF"/>
<path d="M173.52 68.04L173.68 68.52L173.84 68.04L176.53 60.81H176.86L173.87 68.82H173.51L170.52 60.81H170.85L173.54 68.04H173.52Z" fill="#F3FAFF"/>
<path d="M178.66 68.82H178.36V60.81H178.66V68.82Z" fill="#F3FAFF"/>
<path d="M186.53 66.37C186.45 67.2 186.17 67.83 185.68 68.27C185.19 68.71 184.52 68.93 183.68 68.93C183.11 68.93 182.61 68.79 182.17 68.5C181.73 68.21 181.39 67.8 181.15 67.27C180.91 66.74 180.78 66.13 180.78 65.45V64.21C180.78 63.53 180.9 62.92 181.14 62.38C181.38 61.84 181.72 61.43 182.16 61.13C182.6 60.84 183.11 60.69 183.68 60.69C184.52 60.69 185.18 60.91 185.68 61.35C186.18 61.79 186.46 62.42 186.54 63.24H186.24C186.16 62.5 185.9 61.94 185.47 61.56C185.04 61.18 184.45 60.98 183.68 60.98C182.91 60.98 182.27 61.27 181.8 61.86C181.32 62.45 181.08 63.23 181.08 64.22V65.4C181.08 66.03 181.19 66.59 181.4 67.07C181.61 67.56 181.92 67.94 182.32 68.21C182.72 68.48 183.17 68.62 183.69 68.62C184.46 68.62 185.06 68.43 185.49 68.05C185.92 67.67 186.17 67.11 186.25 66.35H186.55L186.53 66.37Z" fill="#F3FAFF"/>
<path d="M188.9 68.82H188.6V60.81H188.9V68.82Z" fill="#F3FAFF"/>
<path d="M196.99 65.42C196.99 66.11 196.87 66.73 196.62 67.26C196.37 67.79 196.02 68.21 195.56 68.5C195.1 68.79 194.57 68.94 193.98 68.94C193.08 68.94 192.35 68.62 191.79 67.98C191.23 67.34 190.95 66.47 190.95 65.38V64.22C190.95 63.53 191.07 62.92 191.32 62.38C191.57 61.84 191.92 61.43 192.38 61.14C192.84 60.85 193.37 60.7 193.96 60.7C194.55 60.7 195.09 60.85 195.55 61.14C196.01 61.43 196.37 61.85 196.61 62.38C196.86 62.92 196.98 63.53 196.98 64.21V65.41L196.99 65.42ZM196.69 64.21C196.69 63.24 196.44 62.46 195.95 61.88C195.46 61.3 194.79 61 193.96 61C193.13 61 192.48 61.29 191.99 61.87C191.5 62.45 191.25 63.24 191.25 64.24V65.41C191.25 66.05 191.36 66.61 191.58 67.1C191.8 67.59 192.12 67.97 192.53 68.23C192.94 68.49 193.42 68.63 193.97 68.63C194.81 68.63 195.47 68.34 195.96 67.76C196.45 67.18 196.69 66.38 196.69 65.37V64.2V64.21Z" fill="#F3FAFF"/>
<path d="M203.62 66.9C203.62 66.56 203.54 66.27 203.38 66.03C203.22 65.79 202.97 65.58 202.63 65.4C202.29 65.22 201.77 65.03 201.08 64.84C200.39 64.65 199.87 64.46 199.52 64.26C199.17 64.06 198.92 63.84 198.76 63.58C198.6 63.32 198.52 63.01 198.52 62.64C198.52 62.06 198.77 61.58 199.26 61.22C199.75 60.86 200.39 60.68 201.18 60.68C201.69 60.68 202.15 60.78 202.56 60.98C202.97 61.18 203.29 61.46 203.51 61.82C203.73 62.18 203.84 62.59 203.84 63.04H203.54C203.54 62.44 203.32 61.95 202.88 61.56C202.44 61.17 201.87 60.97 201.17 60.97C200.47 60.97 199.9 61.13 199.46 61.44C199.03 61.75 198.81 62.15 198.81 62.62C198.81 63.09 199 63.49 199.38 63.78C199.76 64.07 200.38 64.33 201.25 64.56C202.12 64.79 202.76 65.05 203.16 65.34C203.67 65.72 203.93 66.22 203.93 66.86C203.93 67.26 203.82 67.62 203.59 67.93C203.36 68.24 203.04 68.48 202.62 68.65C202.2 68.82 201.73 68.9 201.21 68.9C200.63 68.9 200.11 68.8 199.65 68.61C199.19 68.42 198.84 68.14 198.61 67.79C198.38 67.43 198.26 67.01 198.26 66.53H198.56C198.56 67.19 198.81 67.7 199.3 68.06C199.79 68.42 200.43 68.6 201.22 68.6C201.92 68.6 202.5 68.44 202.95 68.12C203.41 67.8 203.63 67.38 203.63 66.87L203.62 66.9Z" fill="#F3FAFF"/>
<path d="M210.88 68.82V60.81H213.1C213.72 60.81 214.28 60.96 214.78 61.25C215.28 61.54 215.68 61.96 215.96 62.49C216.25 63.02 216.39 63.61 216.4 64.27V65.31C216.4 65.98 216.26 66.58 215.98 67.11C215.7 67.65 215.31 68.06 214.81 68.36C214.31 68.66 213.75 68.81 213.13 68.82H210.89H210.88ZM211.18 61.11V68.53H213.1C213.66 68.53 214.17 68.39 214.63 68.12C215.09 67.85 215.45 67.47 215.71 66.98C215.97 66.49 216.1 65.95 216.11 65.35V64.32C216.11 63.72 215.98 63.18 215.73 62.69C215.48 62.2 215.12 61.82 214.66 61.54C214.2 61.26 213.7 61.12 213.14 61.11H211.18Z" fill="#F3FAFF"/>
<path d="M222.56 64.85H218.54V68.52H223.12V68.82H218.25V60.81H223.12V61.11H218.54V64.55H222.56V64.85V64.85Z" fill="#F3FAFF"/>
<path d="M234.27 66.43H230.35L229.46 68.82H229.14L232.14 60.81H232.5L235.5 68.82H235.17L234.27 66.43V66.43ZM230.46 66.13H234.16L232.31 61.17L230.46 66.13Z" fill="#F3FAFF"/>
<path d="M242.36 67.96C242.16 68.24 241.8 68.47 241.3 68.65C240.8 68.83 240.24 68.93 239.63 68.93C239.02 68.93 238.51 68.78 238.04 68.5C237.57 68.21 237.21 67.8 236.95 67.27C236.69 66.74 236.55 66.15 236.55 65.48V64.1C236.55 63.44 236.68 62.85 236.93 62.33C237.18 61.81 237.54 61.41 238 61.12C238.46 60.84 238.97 60.69 239.55 60.69C240.35 60.69 240.99 60.89 241.49 61.3C241.99 61.71 242.28 62.26 242.36 62.97H242.06C241.96 62.33 241.69 61.84 241.26 61.5C240.83 61.16 240.25 60.99 239.54 60.99C238.73 60.99 238.08 61.28 237.59 61.85C237.09 62.43 236.85 63.18 236.85 64.12V65.4C236.85 66.03 236.97 66.59 237.2 67.08C237.43 67.57 237.76 67.95 238.19 68.22C238.61 68.49 239.1 68.62 239.64 68.62C240.18 68.62 240.67 68.54 241.13 68.38C241.59 68.22 241.9 68.03 242.08 67.81V65.47H239.63V65.17H242.38V67.94L242.36 67.96Z" fill="#F3FAFF"/>
<path d="M249.85 60.81V66.23C249.85 67.08 249.6 67.74 249.11 68.21C248.62 68.69 247.95 68.92 247.11 68.92C246.27 68.92 245.61 68.68 245.11 68.21C244.62 67.74 244.37 67.08 244.37 66.25V60.8H244.67V66.21C244.67 66.95 244.89 67.54 245.34 67.97C245.79 68.4 246.38 68.62 247.11 68.62C247.84 68.62 248.44 68.4 248.88 67.97C249.32 67.54 249.55 66.95 249.55 66.2V60.79H249.85V60.81Z" fill="#F3FAFF"/>
<path d="M256.06 66.43H252.14L251.25 68.82H250.93L253.93 60.81H254.29L257.29 68.82H256.96L256.06 66.43V66.43ZM252.25 66.13H255.95L254.1 61.17L252.25 66.13Z" fill="#F3FAFF"/>
<path d="M265.55 68.33L265.91 67.01L267.8 60.82H268.13L270.01 67.01L270.37 68.33L270.74 67.01L272.39 60.82H272.71L270.55 68.83H270.21L268.22 62.15L267.94 61.3L267.67 62.15L265.67 68.83H265.33L263.17 60.82H263.5L265.16 67.01L265.52 68.33H265.55Z" fill="#F3FAFF"/>
<path d="M276.41 65.51L279.21 60.81H279.57L276.55 65.78V68.82H276.25V65.78L273.23 60.81H273.63L276.4 65.51H276.41Z" fill="#F3FAFF"/>
<path d="M285.6 66.9C285.6 66.56 285.52 66.27 285.36 66.03C285.2 65.79 284.95 65.58 284.61 65.4C284.27 65.22 283.75 65.03 283.06 64.84C282.37 64.65 281.85 64.46 281.5 64.26C281.15 64.06 280.9 63.84 280.74 63.58C280.58 63.32 280.5 63.01 280.5 62.64C280.5 62.06 280.75 61.58 281.24 61.22C281.73 60.86 282.37 60.68 283.16 60.68C283.67 60.68 284.13 60.78 284.54 60.98C284.95 61.18 285.27 61.46 285.49 61.82C285.71 62.18 285.82 62.59 285.82 63.04H285.52C285.52 62.44 285.3 61.95 284.86 61.56C284.42 61.17 283.85 60.97 283.15 60.97C282.45 60.97 281.88 61.13 281.44 61.44C281.01 61.75 280.79 62.15 280.79 62.62C280.79 63.09 280.98 63.49 281.36 63.78C281.74 64.07 282.36 64.33 283.23 64.56C284.1 64.79 284.74 65.05 285.14 65.34C285.65 65.72 285.91 66.22 285.91 66.86C285.91 67.26 285.8 67.62 285.57 67.93C285.34 68.24 285.02 68.48 284.6 68.65C284.18 68.82 283.71 68.9 283.19 68.9C282.61 68.9 282.09 68.8 281.63 68.61C281.17 68.42 280.82 68.14 280.59 67.79C280.36 67.43 280.24 67.01 280.24 66.53H280.54C280.54 67.19 280.79 67.7 281.28 68.06C281.77 68.42 282.41 68.6 283.2 68.6C283.9 68.6 284.48 68.44 284.93 68.12C285.39 67.8 285.61 67.38 285.61 66.87L285.6 66.9Z" fill="#F3FAFF"/>
<path d="M297.65 66.9C297.65 66.56 297.57 66.27 297.41 66.03C297.25 65.79 297 65.58 296.66 65.4C296.32 65.22 295.8 65.03 295.11 64.84C294.42 64.65 293.9 64.46 293.55 64.26C293.2 64.06 292.95 63.84 292.79 63.58C292.63 63.32 292.55 63.01 292.55 62.64C292.55 62.06 292.8 61.58 293.29 61.22C293.78 60.86 294.42 60.68 295.21 60.68C295.72 60.68 296.18 60.78 296.59 60.98C297 61.18 297.32 61.46 297.54 61.82C297.76 62.18 297.87 62.59 297.87 63.04H297.57C297.57 62.44 297.35 61.95 296.91 61.56C296.47 61.17 295.9 60.97 295.2 60.97C294.5 60.97 293.93 61.13 293.49 61.44C293.06 61.75 292.84 62.15 292.84 62.62C292.84 63.09 293.03 63.49 293.41 63.78C293.79 64.07 294.41 64.33 295.28 64.56C296.15 64.79 296.79 65.05 297.19 65.34C297.7 65.72 297.96 66.22 297.96 66.86C297.96 67.26 297.85 67.62 297.62 67.93C297.39 68.24 297.07 68.48 296.65 68.65C296.23 68.82 295.76 68.9 295.24 68.9C294.66 68.9 294.14 68.8 293.68 68.61C293.22 68.42 292.87 68.14 292.64 67.79C292.41 67.43 292.29 67.01 292.29 66.53H292.59C292.59 67.19 292.84 67.7 293.33 68.06C293.82 68.42 294.46 68.6 295.25 68.6C295.95 68.6 296.53 68.44 296.98 68.12C297.44 67.8 297.66 67.38 297.66 66.87L297.65 66.9Z" fill="#F3FAFF"/>
<path d="M299.23 68.55C299.23 68.47 299.26 68.39 299.32 68.33C299.38 68.27 299.45 68.24 299.53 68.24C299.61 68.24 299.69 68.27 299.75 68.33C299.81 68.39 299.84 68.46 299.84 68.55C299.84 68.64 299.81 68.71 299.75 68.76C299.69 68.81 299.62 68.85 299.53 68.85C299.44 68.85 299.37 68.82 299.32 68.76C299.27 68.7 299.23 68.63 299.23 68.55Z" fill="#F3FAFF"/>
<path d="M306.15 66.43H302.23L301.34 68.82H301.02L304.02 60.81H304.38L307.38 68.82H307.05L306.15 66.43V66.43ZM302.34 66.13H306.04L304.19 61.17L302.34 66.13V66.13Z" fill="#F3FAFF"/>
<path d="M308.37 68.55C308.37 68.47 308.4 68.39 308.46 68.33C308.52 68.27 308.59 68.24 308.67 68.24C308.75 68.24 308.83 68.27 308.89 68.33C308.95 68.39 308.98 68.46 308.98 68.55C308.98 68.64 308.95 68.71 308.89 68.76C308.83 68.81 308.76 68.85 308.67 68.85C308.58 68.85 308.51 68.82 308.46 68.76C308.41 68.7 308.37 68.63 308.37 68.55Z" fill="#F3FAFF"/>
<path d="M316.52 66.37C316.44 67.2 316.16 67.83 315.67 68.27C315.18 68.71 314.51 68.93 313.67 68.93C313.1 68.93 312.6 68.79 312.16 68.5C311.72 68.21 311.38 67.8 311.14 67.27C310.9 66.74 310.77 66.13 310.77 65.45V64.21C310.77 63.53 310.89 62.92 311.13 62.38C311.37 61.84 311.71 61.43 312.15 61.13C312.59 60.84 313.1 60.69 313.67 60.69C314.51 60.69 315.17 60.91 315.67 61.35C316.17 61.79 316.45 62.42 316.53 63.24H316.23C316.15 62.5 315.89 61.94 315.46 61.56C315.03 61.18 314.44 60.98 313.67 60.98C312.9 60.98 312.26 61.27 311.79 61.86C311.31 62.45 311.07 63.23 311.07 64.22V65.4C311.07 66.03 311.18 66.59 311.39 67.07C311.6 67.56 311.91 67.94 312.31 68.21C312.71 68.48 313.16 68.62 313.68 68.62C314.45 68.62 315.05 68.43 315.48 68.05C315.91 67.67 316.16 67.11 316.24 66.35H316.54L316.52 66.37Z" fill="#F3FAFF"/>
</g>
<defs>
<clipPath id="clip0_39_801">
<rect width="336.7" height="73.84" fill="white" transform="translate(0 0.679993)"/>
</clipPath>
</defs>
</svg>
