<svg width="273" height="60" viewBox="0 0 273 60" fill="none" xmlns="http://www.w3.org/2000/svg">
<g clip-path="url(#clip0_10_737)">
<path d="M35.4649 36.8581C35.3838 59.8944 0.478378 60.2032 0 37.1912C0.405405 16.9827 7.32973 7.15873 20.2865 0.0893868C20.9838 -0.260017 21.6811 0.528173 21.2838 1.19448C12.0568 18.6647 36.6 20.9724 35.4649 36.8581Z" fill="url(#paint0_linear_10_737)"/>
<path d="M6.90811 16.6983C6.95676 16.5601 6.76216 16.4708 6.68919 16.6008C-0.956756 31.2839 2.36757 45.8207 10.2243 50.3548C16.127 53.7595 23.7405 51.013 26.4973 49.8429C26.6189 49.7942 26.5865 49.6154 26.4568 49.6154C23.4568 49.6885 17.6514 49.3147 12.7297 45.3982C5.35946 39.5314 2.80541 27.9686 6.91622 16.6983H6.90811Z" fill="white"/>
<path d="M28.3703 13.6186C31.6482 13.6186 34.3054 10.9556 34.3054 7.67064C34.3054 4.38565 31.6482 1.72264 28.3703 1.72264C25.0924 1.72264 22.4351 4.38565 22.4351 7.67064C22.4351 10.9556 25.0924 13.6186 28.3703 13.6186Z" fill="url(#paint1_radial_10_737)"/>
<path d="M22.4351 38.1988C25.713 38.1988 28.3703 35.5358 28.3703 32.2508C28.3703 28.9658 25.713 26.3028 22.4351 26.3028C19.1572 26.3028 16.5 28.9658 16.5 32.2508C16.5 35.5358 19.1572 38.1988 22.4351 38.1988Z" fill="white"/>
<path d="M27.3162 43.7161C28.5432 43.7161 29.5378 42.7193 29.5378 41.4897C29.5378 40.2601 28.5432 39.2633 27.3162 39.2633C26.0892 39.2633 25.0946 40.2601 25.0946 41.4897C25.0946 42.7193 26.0892 43.7161 27.3162 43.7161Z" fill="white"/>
<path d="M27.5351 4.85104C28.068 4.85104 28.5 4.41812 28.5 3.88409C28.5 3.35005 28.068 2.91713 27.5351 2.91713C27.0023 2.91713 26.5703 3.35005 26.5703 3.88409C26.5703 4.41812 27.0023 4.85104 27.5351 4.85104Z" fill="white"/>
<path d="M25.5973 4.21722C25.5973 4.21722 21.8027 5.32232 24.6649 9.88895C24.7703 9.19826 23.9595 5.49296 25.5973 4.21722Z" fill="white"/>
<path d="M216.195 15.6582L212.862 21.0455L209.846 16.1701L205.005 8.32883H197.538L209.132 27.091L209.846 28.253V43.9112H216.195V27.7329L216.6 27.091L228.186 8.32883H220.719L216.195 15.6582Z" fill="url(#paint2_linear_10_737)"/>
<path d="M183.568 35.7124L176.116 8.32883H170.108C167.951 16.8933 165.795 25.4496 163.638 34.0141C164.724 37.3131 165.819 40.6121 166.905 43.9112L173.424 19.1197L179.424 43.7243L187.914 43.9112L197.538 8.32883H190.403L183.568 35.7124Z" fill="url(#paint3_linear_10_737)"/>
<path d="M146.716 8.32883L157.07 43.7243H163.589L152.83 8.32883H146.716Z" fill="url(#paint4_radial_10_737)"/>
<path d="M140.919 30.2194C142.508 24.5152 144.097 18.811 145.686 13.0986C145.095 11.5141 144.511 9.92146 143.927 8.32883H141.332L129.746 43.9112L136.573 43.7243L139.159 35.6149H152.1L150.446 30.2194H140.919Z" fill="#3893D1"/>
<path d="M122.197 25.2465C120.503 24.4502 118.508 23.7676 116.205 23.2069C114.438 22.7519 112.954 22.3294 111.77 21.9312C110.586 21.5412 109.695 21.0618 109.111 20.5092C108.511 19.9485 108.219 19.201 108.219 18.2422C108.219 16.9989 108.689 16.032 109.63 15.3413C110.562 14.6587 111.949 14.3093 113.789 14.3093C114.843 14.3093 115.881 14.4475 116.895 14.7319C117.916 15.0081 118.865 15.3332 119.732 15.6907C120.608 16.0563 121.346 16.4301 121.954 16.8283C122.562 17.2264 122.984 17.5433 123.211 17.7709L126.219 12.2373C125.197 11.5466 124.046 10.8965 122.773 10.3115C121.484 9.71019 120.114 9.2389 118.646 8.87325C117.186 8.50759 115.638 8.32883 113.992 8.32883C111.624 8.32883 109.468 8.75136 107.53 9.58831C105.592 10.4253 104.051 11.6522 102.924 13.2774C101.781 14.9025 101.222 16.9095 101.222 19.3066C101.222 21.078 101.578 22.5569 102.3 23.7351C103.022 24.9133 104.132 25.8965 105.608 26.6604C107.084 27.4323 108.924 28.1311 111.13 28.7487C112.97 29.2768 114.568 29.7644 115.914 30.2031C117.259 30.6501 118.314 31.162 119.068 31.7552C119.822 32.3483 120.203 33.169 120.203 34.2172C120.203 35.3548 119.724 36.2405 118.776 36.8581C117.819 37.4756 116.424 37.7844 114.584 37.7844C113.262 37.7844 111.965 37.6219 110.684 37.2887C109.403 36.9637 108.219 36.5574 107.132 36.078C106.054 35.5986 105.13 35.1192 104.376 34.6479C103.622 34.1685 103.095 33.7784 102.795 33.4859L99.7865 39.3689C101.132 40.3196 102.616 41.1322 104.222 41.8147C105.835 42.4892 107.514 43.0092 109.257 43.3667C111 43.7324 112.743 43.9112 114.478 43.9112C116.214 43.9112 117.868 43.7243 119.416 43.3505C120.957 42.9686 122.343 42.3673 123.559 41.5466C124.768 40.734 125.724 39.6614 126.414 38.3288C127.111 37.0043 127.451 35.4036 127.451 33.5347C127.451 31.4058 126.997 29.6912 126.097 28.3993C125.189 27.1073 123.892 26.0509 122.197 25.2465Z" fill="#3893D1"/>
<path d="M87.2513 15.6582L83.9189 21.0455L80.9027 16.1701L76.0622 8.32883H68.5946L80.1892 27.091L80.9027 28.253V43.9112H87.2513V27.7329L87.6486 27.091L99.2432 8.32883H91.7757L87.2513 15.6582Z" fill="#3893D1"/>
<path d="M40.273 8.32883V14.6587H50.9757V43.7243H57.2919V14.6587H68.0513V8.32883H40.273Z" fill="#3893D1"/>
<path d="M264.859 34.2741C276.324 20.1923 262.597 14.3662 261.981 14.1143C281.132 20.0623 270.722 30.6988 264.859 34.2741Z" fill="url(#paint5_radial_10_737)"/>
<path d="M230.976 32.7059C230.976 32.7059 222.024 33.3884 220.508 34.7616C220.857 34.4122 224.424 31.0645 230.976 32.7059Z" fill="url(#paint6_radial_10_737)"/>
<path d="M273 29.7806C270.592 35.4361 266.862 41.0834 256.865 36.6712C255.957 36.273 255 35.7936 253.986 35.2167C254.197 35.2898 255.332 35.7205 257.011 36.0293C261.081 36.7931 268.305 36.8906 273 29.7806Z" fill="url(#paint7_radial_10_737)"/>
<path d="M270.786 38.4507C269.457 40.4171 268.013 41.4735 267.138 42.0179C261.746 45.3738 255.276 43.1311 252.673 41.9772C252.057 41.701 251.659 41.4897 251.538 41.4247C250.63 40.9209 251.059 41.0509 248.295 39.1414C247.589 38.6457 246.868 38.1501 246.154 37.6706C243.073 35.558 239.976 33.559 237.146 32.3483C234.576 31.2432 230.084 29.8781 223.524 30.5607C227.027 29.2768 232.532 27.8792 238.492 29.4556C243.454 30.7719 245.919 33.4047 249.681 35.6636C251.035 36.4843 252.559 37.2481 254.432 37.89C254.959 38.0688 255.543 38.2476 256.168 38.4182C259.557 39.3201 264.365 39.8321 270.786 38.4507Z" fill="url(#paint8_radial_10_737)"/>
<path d="M250.111 43.0986C249.819 43.188 249.519 43.2774 249.211 43.3505C247.67 43.7243 246.024 43.9112 244.281 43.9112C242.538 43.9112 240.795 43.7324 239.059 43.3667C237.308 43.0092 235.638 42.4892 234.024 41.8147C232.411 41.1322 230.935 40.3196 229.589 39.3689L232.597 33.4859C232.889 33.7784 233.416 34.1685 234.17 34.6479C234.924 35.1192 235.849 35.5986 236.935 36.078C238.022 36.5574 239.197 36.9637 240.486 37.2887C241.768 37.6219 243.065 37.7844 244.378 37.7844C246.292 39.5558 248.205 41.3272 250.111 43.0986Z" fill="url(#paint9_linear_10_737)"/>
<path d="M257.254 33.5347C257.254 33.9653 257.238 34.3879 257.197 34.786L249.608 32.6002C249.422 32.2833 249.178 31.9989 248.87 31.7552C248.108 31.162 247.054 30.6501 245.716 30.2031C244.362 29.7644 242.765 29.2768 240.932 28.7487C238.727 28.1311 236.886 27.4323 235.403 26.6604C233.927 25.8965 232.824 24.9133 232.103 23.7351C231.381 22.5569 231.016 21.078 231.016 19.3066C231.016 16.9095 231.584 14.9025 232.719 13.2774C233.854 11.6522 235.386 10.4253 237.332 9.58831C239.27 8.75136 241.419 8.32883 243.786 8.32883C245.432 8.32883 246.989 8.50759 248.449 8.87325C249.908 9.2389 251.286 9.71019 252.568 10.3115C253.849 10.8965 255 11.5466 256.022 12.2373L253.005 17.7709C252.778 17.5433 252.357 17.2264 251.757 16.8283C251.141 16.4301 250.403 16.0563 249.535 15.6907C248.659 15.3332 247.719 15.0081 246.697 14.7319C245.676 14.4475 244.646 14.3093 243.592 14.3093C241.751 14.3093 240.357 14.6587 239.424 15.3413C238.484 16.032 238.022 16.9989 238.022 18.2422C238.022 19.201 238.314 19.9485 238.905 20.5092C239.497 21.0618 240.381 21.5412 241.565 21.9312C242.749 22.3294 244.232 22.7519 246.008 23.2069C248.311 23.7676 250.305 24.4502 252 25.2465C253.695 26.0509 254.992 27.1073 255.892 28.3993C256.8 29.6912 257.254 31.4058 257.254 33.5347Z" fill="url(#paint10_linear_10_737)"/>
<path d="M56.0108 49.1035H53.6432V55.3684H53.4V49.1035H51.0324V48.8597H56.0027V49.1035H56.0108Z" fill="#727272"/>
<path d="M59.6189 52.5894H57.3648V55.3765H57.1216V48.8678H59.1891C59.8378 48.8678 60.3567 49.0385 60.7459 49.3716C61.127 49.7048 61.3216 50.1679 61.3216 50.7449C61.3216 51.1918 61.1837 51.5737 60.9081 51.9068C60.6324 52.24 60.2837 52.4431 59.854 52.5244L61.5891 55.3115V55.3765H61.3378L59.6108 52.5894H59.6189ZM57.3648 52.3456H59.4081C59.9108 52.3456 60.3081 52.1912 60.6162 51.8906C60.9243 51.5899 61.0783 51.1999 61.0783 50.7449C61.0783 50.2411 60.9081 49.8429 60.5675 49.5504C60.227 49.2579 59.7648 49.1116 59.1729 49.1116H57.3648V52.3537V52.3456Z" fill="#727272"/>
<path d="M66.5513 53.4263H63.3729L62.6513 55.3684H62.3918L64.8243 48.8597H65.1162L67.5486 55.3684H67.2891L66.5594 53.4263H66.5513ZM63.4621 53.1826H66.4621L64.9621 49.1522L63.4621 53.1826Z" fill="#727272"/>
<path d="M73.2567 55.3684H73.0135L68.8216 49.2741V55.3684H68.5783V48.8597H68.8216L73.0135 54.9458V48.8597H73.2567V55.3684Z" fill="#727272"/>
<path d="M78.9324 53.8082C78.9324 53.532 78.8675 53.2963 78.7378 53.1013C78.6081 52.9063 78.4054 52.7356 78.1297 52.5894C77.854 52.4431 77.4324 52.2887 76.8729 52.1343C76.3135 51.98 75.8918 51.8256 75.6081 51.6631C75.3243 51.5005 75.1216 51.3218 74.9918 51.1105C74.8621 50.8992 74.7972 50.6473 74.7972 50.3467C74.7972 49.8754 74.9999 49.4854 75.3972 49.1928C75.7945 48.9003 76.3135 48.7541 76.954 48.7541C77.3675 48.7541 77.7405 48.8353 78.0729 48.9978C78.4054 49.1603 78.6648 49.3879 78.8432 49.6804C79.0216 49.9729 79.1189 50.3061 79.1189 50.6717H78.8756C78.8756 50.1842 78.6973 49.786 78.3405 49.4691C77.9837 49.1522 77.5216 48.9897 76.954 48.9897C76.3864 48.9897 75.9243 49.1197 75.5675 49.3716C75.2189 49.6235 75.0405 49.9485 75.0405 50.3304C75.0405 50.7123 75.1945 51.0374 75.5027 51.273C75.8108 51.5087 76.3135 51.7199 77.0189 51.9068C77.7243 52.0937 78.2432 52.305 78.5675 52.5406C78.981 52.8494 79.1918 53.2557 79.1918 53.7757C79.1918 54.1008 79.1027 54.3933 78.9162 54.6452C78.7297 54.8971 78.4702 55.0921 78.1297 55.2302C77.7891 55.3684 77.4081 55.4334 76.9864 55.4334C76.5162 55.4334 76.0945 55.3521 75.7216 55.1977C75.3486 55.0433 75.0648 54.8158 74.8783 54.5314C74.6918 54.247 74.5945 53.8976 74.5945 53.5076H74.8378C74.8378 54.0439 75.0405 54.4583 75.4378 54.7508C75.8351 55.0433 76.354 55.1896 76.9945 55.1896C77.5621 55.1896 78.0324 55.0596 78.3972 54.7996C78.7621 54.5395 78.9486 54.1983 78.9486 53.7839L78.9324 53.8082Z" fill="#727272"/>
<path d="M80.6837 52.6219V55.3684H80.4405V48.8597H82.4675C83.1324 48.8597 83.6432 49.0303 84.0162 49.3635C84.381 49.6966 84.5675 50.1679 84.5675 50.7611C84.5675 51.3543 84.3891 51.8093 84.0324 52.1262C83.6756 52.4431 83.1648 52.6138 82.5081 52.6219H80.6918H80.6837ZM80.6837 52.3781H82.4756C83.0594 52.3781 83.5135 52.24 83.8459 51.9556C84.1702 51.6712 84.3324 51.2811 84.3324 50.7692C84.3324 50.2573 84.1702 49.8348 83.8459 49.5422C83.5216 49.2497 83.0675 49.1035 82.4756 49.1035H80.6837V52.3781Z" fill="#727272"/>
<path d="M90.527 52.6056C90.527 53.1663 90.4297 53.6701 90.227 54.1008C90.0243 54.5314 89.7405 54.8727 89.3675 55.1083C88.9945 55.344 88.5648 55.4659 88.0864 55.4659C87.3567 55.4659 86.7648 55.2058 86.3108 54.6858C85.8567 54.1658 85.6297 53.4588 85.6297 52.5731V51.6305C85.6297 51.0699 85.727 50.5742 85.9297 50.1354C86.1324 49.6966 86.4162 49.3635 86.7891 49.1278C87.1621 48.8922 87.5918 48.7703 88.0702 48.7703C88.5486 48.7703 88.9864 48.8922 89.3594 49.1278C89.7324 49.3635 90.0243 49.7048 90.2189 50.1354C90.4216 50.5742 90.5189 51.0699 90.5189 51.6224V52.5975L90.527 52.6056ZM90.2837 51.6224C90.2837 50.8342 90.081 50.2004 89.6837 49.7291C89.2864 49.2579 88.7513 49.0141 88.0702 49.0141C87.3891 49.0141 86.8702 49.2497 86.4729 49.721C86.0756 50.1923 85.8729 50.8342 85.8729 51.6468V52.5975C85.8729 53.1175 85.9621 53.5726 86.1405 53.9707C86.3189 54.3689 86.5783 54.6777 86.9108 54.8889C87.2432 55.1002 87.6324 55.214 88.0783 55.214C88.7594 55.214 89.2945 54.9783 89.6918 54.507C90.0891 54.0357 90.2837 53.3857 90.2837 52.565V51.6143V51.6224Z" fill="#727272"/>
<path d="M94.4837 52.5894H92.2297V55.3765H91.9864V48.8678H94.054C94.7027 48.8678 95.2216 49.0385 95.6108 49.3716C95.9999 49.7048 96.1864 50.1679 96.1864 50.7449C96.1864 51.1918 96.0486 51.5737 95.7729 51.9068C95.4972 52.24 95.1486 52.4431 94.7189 52.5244L96.454 55.3115V55.3765H96.2027L94.4756 52.5894H94.4837ZM92.2297 52.3456H94.2729C94.7756 52.3456 95.1729 52.1912 95.481 51.8906C95.7891 51.5899 95.9432 51.1999 95.9432 50.7449C95.9432 50.2411 95.7729 49.8429 95.4324 49.5504C95.0918 49.2579 94.6216 49.1116 94.0378 49.1116H92.2297V52.3537V52.3456Z" fill="#727272"/>
<path d="M101.959 49.1035H99.5918V55.3684H99.3486V49.1035H96.981V48.8597H101.951V49.1035H101.959Z" fill="#727272"/>
<path d="M106.589 52.1425H103.33V55.1246H107.043V55.3684H103.095V48.8597H107.043V49.1035H103.33V51.8987H106.589V52.1425Z" fill="#727272"/>
<path d="M114.495 52.6788L116.765 48.8597H117.057L114.608 52.8982V55.3684H114.365V52.8982L111.916 48.8597H112.24L114.486 52.6788H114.495Z" fill="#727272"/>
<path d="M126.381 53.8082C126.381 53.532 126.316 53.2963 126.186 53.1013C126.057 52.9063 125.854 52.7356 125.578 52.5894C125.303 52.4431 124.881 52.2887 124.322 52.1343C123.762 51.98 123.34 51.8256 123.057 51.6631C122.773 51.5005 122.57 51.3218 122.44 51.1105C122.311 50.8992 122.246 50.6473 122.246 50.3467C122.246 49.8754 122.449 49.4854 122.846 49.1928C123.243 48.9003 123.762 48.7541 124.403 48.7541C124.816 48.7541 125.189 48.8353 125.522 48.9978C125.854 49.1603 126.113 49.3879 126.292 49.6804C126.47 49.9729 126.559 50.3061 126.559 50.6717H126.316C126.316 50.1842 126.138 49.786 125.781 49.4691C125.424 49.1522 124.962 48.9897 124.395 48.9897C123.827 48.9897 123.365 49.1197 123.008 49.3716C122.659 49.6235 122.481 49.9485 122.481 50.3304C122.481 50.7123 122.635 51.0374 122.943 51.273C123.251 51.5087 123.754 51.7199 124.459 51.9068C125.165 52.0937 125.684 52.305 126.008 52.5406C126.422 52.8494 126.632 53.2557 126.632 53.7757C126.632 54.1008 126.543 54.3933 126.357 54.6452C126.17 54.8971 125.911 55.0921 125.57 55.2302C125.23 55.3684 124.849 55.4334 124.427 55.4334C123.957 55.4334 123.535 55.3521 123.162 55.1977C122.789 55.0433 122.505 54.8158 122.319 54.5314C122.132 54.2389 122.035 53.8976 122.035 53.5076H122.278C122.278 54.0439 122.481 54.4583 122.878 54.7508C123.276 55.0433 123.795 55.1896 124.435 55.1896C125.003 55.1896 125.473 55.0596 125.838 54.7996C126.211 54.5395 126.389 54.1983 126.389 53.7839L126.381 53.8082Z" fill="#727272"/>
<path d="M131.392 52.1425H128.132V55.1246H131.846V55.3684H127.897V48.8597H131.846V49.1035H128.132V51.8987H131.392V52.1425Z" fill="#727272"/>
<path d="M135.568 52.5894H133.313V55.3765H133.07V48.8678H135.138C135.786 48.8678 136.305 49.0385 136.695 49.3716C137.084 49.7048 137.27 50.1679 137.27 50.7449C137.27 51.1918 137.132 51.5737 136.857 51.9068C136.581 52.24 136.232 52.4431 135.803 52.5244L137.538 55.3115V55.3765H137.286L135.559 52.5894H135.568ZM133.313 52.3456H135.357C135.859 52.3456 136.257 52.1912 136.565 51.8906C136.873 51.5899 137.027 51.1999 137.027 50.7449C137.027 50.2411 136.857 49.8429 136.516 49.5504C136.176 49.2579 135.705 49.1116 135.122 49.1116H133.313V52.3537V52.3456Z" fill="#727272"/>
<path d="M140.692 54.7346L140.822 55.1246L140.951 54.7346L143.132 48.8597H143.4L140.976 55.3684H140.684L138.259 48.8597H138.527L140.708 54.7346H140.692Z" fill="#727272"/>
<path d="M144.859 55.3684H144.616V48.8597H144.859V55.3684Z" fill="#727272"/>
<path d="M151.24 53.3776C151.176 54.052 150.949 54.5639 150.551 54.9214C150.154 55.279 149.611 55.4577 148.93 55.4577C148.468 55.4577 148.062 55.344 147.705 55.1083C147.349 54.8727 147.073 54.5395 146.878 54.1089C146.684 53.6782 146.578 53.1825 146.578 52.63V51.6224C146.578 51.0699 146.676 50.5742 146.87 50.1354C147.065 49.6966 147.34 49.3635 147.697 49.1197C148.054 48.8841 148.468 48.7622 148.93 48.7622C149.611 48.7622 150.146 48.9409 150.551 49.2985C150.957 49.656 151.184 50.1679 151.249 50.8342H151.005C150.94 50.2329 150.73 49.7779 150.381 49.4691C150.032 49.1603 149.554 48.9978 148.93 48.9978C148.305 48.9978 147.786 49.2335 147.405 49.7129C147.016 50.1923 146.822 50.8261 146.822 51.6305V52.5894C146.822 53.1013 146.911 53.5563 147.081 53.9464C147.251 54.3445 147.503 54.6533 147.827 54.8727C148.151 55.0921 148.516 55.2058 148.938 55.2058C149.562 55.2058 150.049 55.0515 150.397 54.7427C150.746 54.4339 150.949 53.9789 151.013 53.3613H151.257L151.24 53.3776Z" fill="#727272"/>
<path d="M153.162 55.3684H152.919V48.8597H153.162V55.3684Z" fill="#727272"/>
<path d="M159.722 52.6056C159.722 53.1663 159.624 53.6701 159.422 54.1008C159.219 54.5314 158.935 54.8727 158.562 55.1083C158.189 55.344 157.759 55.4659 157.281 55.4659C156.551 55.4659 155.959 55.2058 155.505 54.6858C155.051 54.1658 154.824 53.4588 154.824 52.5731V51.6305C154.824 51.0699 154.922 50.5742 155.124 50.1354C155.327 49.6966 155.611 49.3635 155.984 49.1278C156.357 48.8922 156.786 48.7703 157.265 48.7703C157.743 48.7703 158.181 48.8922 158.554 49.1278C158.927 49.3635 159.219 49.7048 159.413 50.1354C159.616 50.5742 159.713 51.0699 159.713 51.6224V52.5975L159.722 52.6056ZM159.478 51.6224C159.478 50.8342 159.276 50.2004 158.878 49.7291C158.481 49.2579 157.938 49.0141 157.265 49.0141C156.592 49.0141 156.065 49.2497 155.668 49.721C155.27 50.1923 155.068 50.8342 155.068 51.6468V52.5975C155.068 53.1175 155.157 53.5726 155.335 53.9707C155.513 54.3689 155.773 54.6777 156.105 54.8889C156.438 55.1002 156.827 55.214 157.273 55.214C157.954 55.214 158.489 54.9783 158.886 54.507C159.284 54.0357 159.478 53.3857 159.478 52.565V51.6143V51.6224Z" fill="#727272"/>
<path d="M165.097 53.8082C165.097 53.532 165.032 53.2963 164.903 53.1013C164.773 52.9063 164.57 52.7356 164.295 52.5894C164.019 52.4431 163.597 52.2887 163.038 52.1343C162.478 51.98 162.057 51.8256 161.773 51.6631C161.489 51.5005 161.286 51.3218 161.157 51.1105C161.027 50.8992 160.962 50.6473 160.962 50.3467C160.962 49.8754 161.165 49.4854 161.562 49.1928C161.959 48.9003 162.478 48.7541 163.119 48.7541C163.532 48.7541 163.905 48.8353 164.238 48.9978C164.57 49.1603 164.83 49.3879 165.008 49.6804C165.186 49.9729 165.276 50.3061 165.276 50.6717H165.032C165.032 50.1842 164.854 49.786 164.497 49.4691C164.14 49.1522 163.678 48.9897 163.111 48.9897C162.543 48.9897 162.081 49.1197 161.724 49.3716C161.376 49.6235 161.197 49.9485 161.197 50.3304C161.197 50.7123 161.351 51.0374 161.659 51.273C161.968 51.5087 162.47 51.7199 163.176 51.9068C163.881 52.0937 164.4 52.305 164.724 52.5406C165.138 52.8494 165.349 53.2557 165.349 53.7757C165.349 54.1008 165.259 54.3933 165.073 54.6452C164.886 54.8971 164.627 55.0921 164.286 55.2302C163.946 55.3684 163.565 55.4334 163.143 55.4334C162.673 55.4334 162.251 55.3521 161.878 55.1977C161.505 55.0433 161.222 54.8158 161.035 54.5314C160.849 54.2389 160.751 53.8976 160.751 53.5076H160.995C160.995 54.0439 161.197 54.4583 161.595 54.7508C161.992 55.0433 162.511 55.1896 163.151 55.1896C163.719 55.1896 164.189 55.0596 164.554 54.7996C164.927 54.5395 165.105 54.1983 165.105 53.7839L165.097 53.8082Z" fill="#727272"/>
<path d="M170.984 55.3684V48.8597H172.784C173.286 48.8597 173.74 48.9816 174.146 49.2172C174.551 49.4529 174.876 49.7941 175.103 50.2248C175.338 50.6555 175.451 51.1349 175.459 51.6712V52.5163C175.459 53.0607 175.346 53.5482 175.119 53.9789C174.892 54.4177 174.576 54.7508 174.17 54.9946C173.765 55.2383 173.311 55.3602 172.808 55.3684H170.992H170.984ZM171.227 49.1035V55.1327H172.784C173.238 55.1327 173.651 55.019 174.024 54.7996C174.397 54.5802 174.689 54.2714 174.9 53.8732C175.111 53.4751 175.216 53.0363 175.224 52.5488V51.7118C175.224 51.2243 175.119 50.7855 174.916 50.3873C174.713 49.9892 174.422 49.6804 174.049 49.4529C173.676 49.2253 173.27 49.1116 172.816 49.1035H171.227Z" fill="#727272"/>
<path d="M180.454 52.1425H177.195V55.1246H180.908V55.3684H176.959V48.8597H180.908V49.1035H177.195V51.8987H180.454V52.1425Z" fill="#727272"/>
<path d="M189.949 53.4263H186.77L186.049 55.3684H185.789L188.222 48.8597H188.513L190.946 55.3684H190.678L189.949 53.4263ZM186.859 53.1826H189.859L188.359 49.1522L186.859 53.1826Z" fill="#727272"/>
<path d="M196.508 54.6695C196.346 54.8971 196.054 55.084 195.649 55.2302C195.243 55.3765 194.789 55.4577 194.295 55.4577C193.8 55.4577 193.386 55.3359 193.005 55.1083C192.624 54.8727 192.332 54.5395 192.122 54.1089C191.911 53.6782 191.797 53.1988 191.797 52.6544V51.533C191.797 50.9967 191.903 50.5173 192.105 50.0948C192.308 49.6723 192.6 49.3472 192.973 49.1116C193.346 48.8841 193.759 48.7622 194.23 48.7622C194.878 48.7622 195.397 48.9247 195.803 49.2578C196.208 49.591 196.443 50.0379 196.508 50.6148H196.265C196.184 50.0948 195.965 49.6966 195.616 49.4204C195.268 49.1441 194.797 49.0059 194.222 49.0059C193.565 49.0059 193.038 49.2416 192.64 49.7048C192.235 50.176 192.04 50.7855 192.04 51.5493V52.5894C192.04 53.1013 192.138 53.5563 192.324 53.9545C192.511 54.3526 192.778 54.6614 193.127 54.8808C193.468 55.1002 193.865 55.2058 194.303 55.2058C194.74 55.2058 195.138 55.1408 195.511 55.0108C195.884 54.8808 196.135 54.7264 196.281 54.5477V52.6462H194.295V52.4025H196.524V54.6533L196.508 54.6695Z" fill="#727272"/>
<path d="M202.581 48.8597V53.2638C202.581 53.9545 202.378 54.4908 201.981 54.8727C201.584 55.2627 201.04 55.4496 200.359 55.4496C199.678 55.4496 199.143 55.2546 198.738 54.8727C198.34 54.4908 198.138 53.9545 198.138 53.2801V48.8516H198.381V53.2476C198.381 53.8489 198.559 54.3283 198.924 54.6777C199.289 55.0271 199.768 55.2059 200.359 55.2059C200.951 55.2059 201.438 55.0271 201.795 54.6777C202.151 54.3283 202.338 53.8489 202.338 53.2394V48.8434H202.581V48.8597Z" fill="#727272"/>
<path d="M207.616 53.4263H204.438L203.716 55.3684H203.457L205.889 48.8597H206.181L208.613 55.3684H208.346L207.616 53.4263ZM204.527 53.1826H207.527L206.027 49.1522L204.527 53.1826Z" fill="#727272"/>
<path d="M215.311 54.9702L215.603 53.8976L217.135 48.8678H217.403L218.927 53.8976L219.219 54.9702L219.519 53.8976L220.857 48.8678H221.116L219.365 55.3765H219.089L217.476 49.9485L217.249 49.2579L217.03 49.9485L215.408 55.3765H215.132L213.381 48.8678H213.649L214.995 53.8976L215.286 54.9702H215.311Z" fill="#727272"/>
<path d="M224.116 52.6788L226.386 48.8597H226.678L224.23 52.8982V55.3684H223.986V52.8982L221.538 48.8597H221.862L224.108 52.6788H224.116Z" fill="#727272"/>
<path d="M231.568 53.8082C231.568 53.532 231.503 53.2963 231.373 53.1013C231.243 52.9063 231.04 52.7356 230.765 52.5894C230.489 52.4431 230.068 52.2887 229.508 52.1343C228.949 51.98 228.527 51.8256 228.243 51.6631C227.959 51.5005 227.757 51.3218 227.627 51.1105C227.497 50.8992 227.432 50.6473 227.432 50.3467C227.432 49.8754 227.635 49.4854 228.032 49.1928C228.43 48.9003 228.949 48.7541 229.589 48.7541C230.003 48.7541 230.376 48.8353 230.708 48.9978C231.04 49.1603 231.3 49.3879 231.478 49.6804C231.657 49.9729 231.746 50.3061 231.746 50.6717H231.503C231.503 50.1842 231.324 49.786 230.967 49.4691C230.611 49.1522 230.149 48.9897 229.581 48.9897C229.013 48.9897 228.551 49.1197 228.195 49.3716C227.846 49.6235 227.668 49.9485 227.668 50.3304C227.668 50.7123 227.822 51.0374 228.13 51.273C228.438 51.5087 228.94 51.7199 229.646 51.9068C230.351 52.0937 230.87 52.305 231.195 52.5406C231.608 52.8494 231.819 53.2557 231.819 53.7757C231.819 54.1008 231.73 54.3933 231.543 54.6452C231.357 54.8971 231.097 55.0921 230.757 55.2302C230.416 55.3684 230.035 55.4334 229.613 55.4334C229.143 55.4334 228.722 55.3521 228.349 55.1977C227.976 55.0433 227.692 54.8158 227.505 54.5314C227.319 54.2389 227.222 53.8976 227.222 53.5076H227.465C227.465 54.0439 227.668 54.4583 228.065 54.7508C228.462 55.0433 228.981 55.1896 229.622 55.1896C230.189 55.1896 230.659 55.0596 231.024 54.7996C231.397 54.5395 231.576 54.1983 231.576 53.7839L231.568 53.8082Z" fill="#727272"/>
<path d="M241.338 53.8082C241.338 53.532 241.273 53.2963 241.143 53.1013C241.013 52.9063 240.811 52.7356 240.535 52.5894C240.259 52.4431 239.838 52.2887 239.278 52.1343C238.719 51.98 238.297 51.8256 238.013 51.6631C237.73 51.5005 237.527 51.3218 237.397 51.1105C237.268 50.8992 237.203 50.6473 237.203 50.3467C237.203 49.8754 237.405 49.4854 237.803 49.1928C238.2 48.9003 238.719 48.7541 239.359 48.7541C239.773 48.7541 240.146 48.8353 240.478 48.9978C240.811 49.1603 241.07 49.3879 241.249 49.6804C241.427 49.9729 241.516 50.3061 241.516 50.6717H241.273C241.273 50.1842 241.095 49.786 240.738 49.4691C240.381 49.1522 239.919 48.9897 239.351 48.9897C238.784 48.9897 238.322 49.1197 237.965 49.3716C237.616 49.6235 237.438 49.9485 237.438 50.3304C237.438 50.7123 237.592 51.0374 237.9 51.273C238.208 51.5087 238.711 51.7199 239.416 51.9068C240.122 52.0937 240.64 52.305 240.965 52.5406C241.378 52.8494 241.589 53.2557 241.589 53.7757C241.589 54.1008 241.5 54.3933 241.313 54.6452C241.127 54.8971 240.868 55.0921 240.527 55.2302C240.186 55.3684 239.805 55.4334 239.384 55.4334C238.913 55.4334 238.492 55.3521 238.119 55.1977C237.746 55.0433 237.462 54.8158 237.276 54.5314C237.089 54.2389 236.992 53.8976 236.992 53.5076H237.235C237.235 54.0439 237.438 54.4583 237.835 54.7508C238.232 55.0433 238.751 55.1896 239.392 55.1896C239.959 55.1896 240.43 55.0596 240.795 54.7996C241.168 54.5395 241.346 54.1983 241.346 53.7839L241.338 53.8082Z" fill="#727272"/>
<path d="M242.619 55.149C242.619 55.084 242.643 55.019 242.692 54.9702C242.74 54.9215 242.797 54.8971 242.862 54.8971C242.927 54.8971 242.992 54.9215 243.04 54.9702C243.089 55.019 243.113 55.0758 243.113 55.149C243.113 55.2221 243.089 55.279 243.04 55.3196C242.992 55.3602 242.935 55.3927 242.862 55.3927C242.789 55.3927 242.732 55.3684 242.692 55.3196C242.651 55.2709 242.619 55.214 242.619 55.149Z" fill="#727272"/>
<path d="M248.23 53.4263H245.051L244.33 55.3684H244.07L246.503 48.8597H246.795L249.227 55.3684H248.959L248.23 53.4263ZM245.14 53.1826H248.14L246.64 49.1522L245.14 53.1826Z" fill="#727272"/>
<path d="M250.03 55.149C250.03 55.084 250.054 55.019 250.103 54.9702C250.151 54.9215 250.208 54.8971 250.273 54.8971C250.338 54.8971 250.403 54.9215 250.451 54.9702C250.5 55.019 250.524 55.0758 250.524 55.149C250.524 55.2221 250.5 55.279 250.451 55.3196C250.403 55.3602 250.346 55.3927 250.273 55.3927C250.2 55.3927 250.143 55.3684 250.103 55.3196C250.062 55.2709 250.03 55.214 250.03 55.149Z" fill="#727272"/>
<path d="M256.638 53.3776C256.573 54.052 256.346 54.5639 255.949 54.9214C255.551 55.279 255.008 55.4577 254.327 55.4577C253.865 55.4577 253.459 55.344 253.103 55.1083C252.746 54.8727 252.47 54.5395 252.276 54.1089C252.081 53.6782 251.976 53.1825 251.976 52.63V51.6224C251.976 51.0699 252.073 50.5742 252.268 50.1354C252.462 49.6966 252.738 49.3635 253.095 49.1197C253.451 48.8841 253.865 48.7622 254.327 48.7622C255.008 48.7622 255.543 48.9409 255.949 49.2985C256.354 49.656 256.581 50.1679 256.646 50.8342H256.403C256.338 50.2329 256.127 49.7779 255.778 49.4691C255.43 49.1603 254.951 48.9978 254.327 48.9978C253.703 48.9978 253.184 49.2335 252.803 49.7129C252.413 50.1923 252.219 50.8261 252.219 51.6305V52.5894C252.219 53.1013 252.308 53.5563 252.478 53.9464C252.649 54.3445 252.9 54.6533 253.224 54.8727C253.549 55.0921 253.913 55.2058 254.335 55.2058C254.959 55.2058 255.446 55.0515 255.795 54.7427C256.143 54.4339 256.346 53.9789 256.411 53.3613H256.654L256.638 53.3776Z" fill="#727272"/>
</g>
<defs>
<linearGradient id="paint0_linear_10_737" x1="17.7486" y1="3.69719" x2="17.7486" y2="52.0368" gradientUnits="userSpaceOnUse">
<stop stop-color="#45B9EB"/>
<stop offset="1" stop-color="#008AC5"/>
</linearGradient>
<radialGradient id="paint1_radial_10_737" cx="0" cy="0" r="1" gradientUnits="userSpaceOnUse" gradientTransform="translate(28.3703 7.67064) scale(5.93513 5.948)">
<stop stop-color="#45B9EB"/>
<stop offset="1" stop-color="#008AC5"/>
</radialGradient>
<linearGradient id="paint2_linear_10_737" x1="212.862" y1="8.22319" x2="212.862" y2="40.1734" gradientUnits="userSpaceOnUse">
<stop stop-color="#2DA74B"/>
<stop offset="0.53" stop-color="#75B947"/>
<stop offset="1" stop-color="#3EAC47"/>
</linearGradient>
<linearGradient id="paint3_linear_10_737" x1="180.584" y1="8.84887" x2="180.584" y2="40.7909" gradientUnits="userSpaceOnUse">
<stop stop-color="#2DA74B"/>
<stop offset="0.53" stop-color="#75B947"/>
<stop offset="1" stop-color="#3EAC47"/>
</linearGradient>
<radialGradient id="paint4_radial_10_737" cx="0" cy="0" r="1" gradientUnits="userSpaceOnUse" gradientTransform="translate(155.149 26.0266) scale(13.8405 13.8705)">
<stop stop-color="#52A962"/>
<stop offset="1" stop-color="#0A9663"/>
</radialGradient>
<radialGradient id="paint5_radial_10_737" cx="0" cy="0" r="1" gradientUnits="userSpaceOnUse" gradientTransform="translate(267.486 24.1901) scale(8.10811 8.12568)">
<stop stop-color="#45B9EB"/>
<stop offset="1" stop-color="#008AC5"/>
</radialGradient>
<radialGradient id="paint6_radial_10_737" cx="0" cy="0" r="1" gradientUnits="userSpaceOnUse" gradientTransform="translate(225.738 33.5022) scale(3.80271 3.81094)">
<stop stop-color="#45B9EB"/>
<stop offset="1" stop-color="#008AC5"/>
</radialGradient>
<radialGradient id="paint7_radial_10_737" cx="0" cy="0" r="1" gradientUnits="userSpaceOnUse" gradientTransform="translate(263.489 34.0141) scale(7.35406 7.36999)">
<stop stop-color="#45B9EB"/>
<stop offset="1" stop-color="#008AC5"/>
</radialGradient>
<radialGradient id="paint8_radial_10_737" cx="0" cy="0" r="1" gradientUnits="userSpaceOnUse" gradientTransform="translate(247.151 36.2649) scale(17.5297 17.5677)">
<stop stop-color="#45B9EB"/>
<stop offset="1" stop-color="#008AC5"/>
</radialGradient>
<linearGradient id="paint9_linear_10_737" x1="239.846" y1="8.22318" x2="239.846" y2="40.1734" gradientUnits="userSpaceOnUse">
<stop stop-color="#2DA74B"/>
<stop offset="0.53" stop-color="#75B947"/>
<stop offset="1" stop-color="#3EAC47"/>
</linearGradient>
<linearGradient id="paint10_linear_10_737" x1="244.135" y1="8.22319" x2="244.135" y2="40.1734" gradientUnits="userSpaceOnUse">
<stop stop-color="#2DA74B"/>
<stop offset="0.53" stop-color="#75B947"/>
<stop offset="1" stop-color="#3EAC47"/>
</linearGradient>
<clipPath id="clip0_10_737">
<rect width="273" height="60" fill="white"/>
</clipPath>
</defs>
</svg>
